<?xml version="1.0" encoding="iso-8859-1"?>
<!-- Generator: Adobe Illustrator 19.0.0, SVG Export Plug-In . SVG Version: 6.00 Build 0)  -->
<svg version="1.1" id="Layer_1" xmlns="http://www.w3.org/2000/svg" xmlns:xlink="http://www.w3.org/1999/xlink" x="0px" y="0px"
	 viewBox="0 0 512 512" style="enable-background:new 0 0 512 512;" xml:space="preserve">
<g>
	<g>
		<path d="M502.037,95.195l2.353-1.729c8.305-6.104,10.089-17.785,3.984-26.09c-6.104-8.307-17.785-10.09-26.09-3.984l-2.353,1.729
			c-1.662,1.222-3.051,2.675-4.179,4.271c-18.597-19.002-42.721-31.44-69.47-35.541c-32.656-5.003-65.303,3.002-91.929,22.552
			l-110.1,80.824c-18.851-3.235-39.906-4.952-61.677-4.952c-34.81,0-68.079,4.387-93.152,12.356C8.816,157.535,0,176.495,0,190.128
			v66.005c0,13.633,8.816,32.593,49.426,45.495c16.724,5.315,36.983,9.026,58.938,10.915
			c-34.853,12.782-42.425,30.357-42.425,43.204v66.004c0,13.633,8.662,32.593,49.271,45.496
			c25.072,7.967,58.12,12.355,92.928,12.355s67.522-4.387,92.595-12.355c40.609-12.903,48.868-31.862,48.868-45.496v-66.004
			c0-4.769-0.751-10.191-3.846-15.777l114.819-84.177c50.126-36.8,64.498-104.528,36.031-157.86
			C498.48,97.334,500.365,96.426,502.037,95.195z M142.578,169.602c5.93,0,11.615,0.133,17.06,0.379l-0.159,0.117
			c-0.02,0.015-0.036,0.031-0.056,0.046c-0.153,0.111-0.307,0.216-0.459,0.328c-14.645,10.751-26.498,24.287-35.041,39.719
			c-47.545-2.371-76.142-13.42-84.369-20.064C48.815,182.655,83.824,169.602,142.578,169.602z M108.226,275.082
			c-41.958-4.042-65.925-14.864-70.902-20.51V231.34c3.732,1.486,7.809,2.921,12.102,4.285c17.25,5.482,38.388,9.269,61.143,11.098
			c-0.301,1.565-0.509,3.136-0.751,4.721C108.597,259.409,107.921,267.314,108.226,275.082z M208.208,335.219
			c58.754,0,93.763,13.053,103.024,20.527c-9.253,7.472-44.259,20.528-103.024,20.528s-93.772-13.056-103.024-20.528
			C114.445,348.273,149.454,335.219,208.208,335.219z M312.278,420.191c-4.977,7.029-41.409,22.087-104.507,22.087
			s-98.287-15.059-104.507-22.087v-23.232c3.732,1.486,7.655,2.921,11.947,4.285c25.072,7.967,58.12,12.356,92.928,12.356
			s67.522-4.387,92.595-12.356c4.292-1.364,9.056-2.799,11.544-4.285V420.191z M317.553,283.284
			c-1.619,10.554-5.106,20.363-10.053,29.164c-2.054-0.749-4.188-1.484-6.435-2.198c-25.072-7.967-58.05-12.355-92.86-12.355
			c-19.731,0-38.87,1.412-56.318,4.084c-5.488-13.795-7.513-29.17-5.105-44.878c3.497-22.806,15.666-42.887,34.266-56.541
			c14.983-10.999,32.691-16.767,50.934-16.767c4.404,0,8.842,0.337,13.277,1.016c47.081,7.218,79.51,51.395,72.292,98.476H317.553z
			 M438.637,225.706l-83.967,61.639c9.296-66.317-36.172-128.221-102.245-139.179l84.015-61.674
			c18.591-13.651,41.382-19.243,64.185-15.746c22.798,3.497,42.87,15.662,56.52,34.256
			C485.321,143.381,477.017,197.529,438.637,225.706z"/>
	</g>
</g>
<g>
	<g>
		<circle cx="182.166" cy="266.158" r="14.137"/>
	</g>
</g>
<g>
	<g>
		<circle cx="219.851" cy="223.136" r="14.137"/>
	</g>
</g>
<g>
	<g>
		<circle cx="282.419" cy="287.943" r="14.137"/>
	</g>
</g>
<g>
	<g>
		<circle cx="270.425" cy="237.269" r="14.137"/>
	</g>
</g>
<g>
	<g>
		<circle cx="228.846" cy="273.81" r="14.137"/>
	</g>
</g>
<g>
</g>
<g>
</g>
<g>
</g>
<g>
</g>
<g>
</g>
<g>
</g>
<g>
</g>
<g>
</g>
<g>
</g>
<g>
</g>
<g>
</g>
<g>
</g>
<g>
</g>
<g>
</g>
<g>
</g>
</svg>
