<?xml version="1.0" encoding="iso-8859-1"?>
<!-- Generator: Adobe Illustrator 18.0.0, SVG Export Plug-In . SVG Version: 6.00 Build 0)  -->
<!DOCTYPE svg PUBLIC "-//W3C//DTD SVG 1.1//EN" "http://www.w3.org/Graphics/SVG/1.1/DTD/svg11.dtd">
<svg version="1.1" id="Capa_1" xmlns="http://www.w3.org/2000/svg" xmlns:xlink="http://www.w3.org/1999/xlink" x="0px" y="0px"
	 viewBox="0 0 297 297" style="enable-background:new 0 0 297 297;" xml:space="preserve">
<path d="M282.869,48.219l13.093-26.362c2.44-4.912,0.435-10.872-4.476-13.311c-4.914-2.441-10.871-0.434-13.311,4.476
	l-13.093,26.362c-9.199-4.516-20.209-2.679-27.437,4.591L200.432,81.39c-2.251,2.262-3.277,5.47-2.757,8.619
	c0.52,3.15,2.521,5.857,5.38,7.277l6.652,3.304c-1.768,7.006-5.59,18.786-13.408,31.857c-2.262,3.782-4.713,7.411-7.319,10.913
	c-1.717-14.388-8.69-26.798-19.872-36.497l1.764-0.882c3.717-1.858,5.883-5.835,5.43-9.965c-0.454-4.131-3.431-7.543-7.462-8.55
	l-64.209-16.052V43.302c0-5.484-4.446-9.93-9.93-9.93s-9.93,4.446-9.93,9.93v28.112L20.563,87.465
	c-4.031,1.008-7.008,4.419-7.462,8.55c-0.453,4.13,1.714,8.107,5.43,9.965l1.763,0.882C7.316,118.12,0,133.027,0,150.444
	c0,20.674,10.203,42.032,27.991,58.598c9.504,8.851,20.396,15.63,32.067,20.146c-2.915,4.608-4.558,9.385-4.933,14.349
	c-1.594,21.075,20.673,34.668,27.536,38.333c6.639,3.544,19.8,7.624,36.536,7.624c12.259,0,26.437-2.19,41.37-8.38
	c22.227-9.214,42.589-25.696,60.52-48.987c19.771-25.678,36.652-59.841,50.254-101.647l0.195,0.199
	c2.647,2.708,6.602,3.674,10.2,2.491c3.597-1.182,6.208-4.307,6.734-8.056l7.322-52.26C297.214,62.7,292.021,52.818,282.869,48.219z
	 M84.771,91.884v5.214c0,5.484,4.446,9.93,9.93,9.93s9.93-4.446,9.93-9.93v-5.214l33.349,8.338l-11.854,5.927
	c-3.365,1.682-5.49,5.12-5.49,8.882v19.799l-21.495-10.748c-1.397-0.699-2.919-1.048-4.44-1.048c-1.522,0-3.043,0.349-4.44,1.048
	l-21.494,10.747v-19.798c0-3.762-2.125-7.199-5.49-8.882l-11.855-5.927L84.771,91.884z M19.86,150.444
	c0-14.898,8.059-25.982,20.409-33.594l8.638,4.319v29.728c0,3.442,1.782,6.638,4.71,8.447s6.584,1.973,9.66,0.434l31.424-15.712
	l31.425,15.712c1.401,0.701,2.922,1.048,4.44,1.048c1.815,0,3.626-0.497,5.221-1.483c2.927-1.81,4.709-5.006,4.709-8.447v-29.728
	l8.638-4.319c12.35,7.612,20.409,18.697,20.409,33.594c0,5.319-1.013,10.789-2.909,16.193
	c-13.303,10.834-29.074,19.525-47.259,25.945c-18.564,6.555-33.018,13.491-43.489,20.89C43.213,205.078,19.86,176.011,19.86,150.444
	z M152.961,262.766c-29.512,12.236-54,5.291-60.946,1.584c-8.873-4.738-17.598-12.547-17.086-19.315
	c0.286-3.784,4.814-17.397,51.057-33.724c48.994-17.298,74.845-47.393,87.904-69.593c3.997-6.795,7.07-13.275,9.431-19.109
	l1.483,4.411c1.027,3.054,3.472,5.419,6.556,6.345c0.938,0.282,1.9,0.42,2.855,0.42c2.189,0,4.345-0.723,6.113-2.103l13.037-10.181
	C223.18,216.15,182.293,250.606,152.961,262.766z M276.123,70.098l-4.518,32.245l-5.037-5.15c-3.537-3.618-9.226-3.997-13.212-0.884
	l-14.198,11.088l-4.484-13.333c-0.84-2.496-2.637-4.557-4.995-5.728l-5.452-2.707l27.498-27.646c1.219-1.226,3.079-1.53,4.625-0.763
	l17.586,8.733C275.484,66.721,276.363,68.388,276.123,70.098z"/>
<g>
</g>
<g>
</g>
<g>
</g>
<g>
</g>
<g>
</g>
<g>
</g>
<g>
</g>
<g>
</g>
<g>
</g>
<g>
</g>
<g>
</g>
<g>
</g>
<g>
</g>
<g>
</g>
<g>
</g>
</svg>
