<?xml version="1.0" encoding="iso-8859-1"?>
<!-- Generator: Adobe Illustrator 18.0.0, SVG Export Plug-In . SVG Version: 6.00 Build 0)  -->
<!DOCTYPE svg PUBLIC "-//W3C//DTD SVG 1.1//EN" "http://www.w3.org/Graphics/SVG/1.1/DTD/svg11.dtd">
<svg version="1.1" id="Capa_1" xmlns="http://www.w3.org/2000/svg" xmlns:xlink="http://www.w3.org/1999/xlink" x="0px" y="0px"
	 viewBox="0 0 53.607 53.607" style="enable-background:new 0 0 53.607 53.607;" xml:space="preserve">
<g>
	<path d="M27.709,30.9c-0.097-0.253-0.212-0.5-0.339-0.74c-0.082-0.155-0.177-0.302-0.271-0.452
		c-0.067-0.107-0.134-0.213-0.206-0.317c-0.108-0.155-0.221-0.304-0.341-0.451c-0.069-0.084-0.143-0.164-0.215-0.245
		c-0.226-0.252-0.467-0.486-0.726-0.705c-0.093-0.079-0.182-0.163-0.279-0.237c-0.122-0.093-0.248-0.174-0.375-0.259
		c-0.149-0.1-0.301-0.194-0.456-0.281c-0.106-0.059-0.211-0.117-0.32-0.17c-0.277-0.135-0.558-0.256-0.847-0.345
		c-0.236-0.073-0.47-0.123-0.703-0.162c-0.048-0.008-0.096-0.015-0.144-0.021c-0.476-0.065-0.941-0.06-1.382,0.015
		c-0.01,0.002-0.021,0.004-0.031,0.006c-0.581,0.104-1.12,0.321-1.581,0.661c-0.046,0.034-0.078,0.081-0.123,0.116
		c-0.124,0.1-0.237,0.213-0.347,0.33c-0.077,0.082-0.161,0.156-0.229,0.245c-0.145,0.186-0.274,0.387-0.385,0.606
		c-0.002,0.004-0.001,0.008-0.003,0.012c-0.289,0.575-0.449,1.236-0.449,1.964c0,2.701,2.102,5.469,4.785,6.3
		c0.507,0.157,1.012,0.234,1.498,0.234c0.872,0,1.685-0.249,2.343-0.734c0.99-0.73,1.536-1.893,1.536-3.273
		c0-0.707-0.15-1.416-0.411-2.096C27.709,30.901,27.709,30.901,27.709,30.9z M20.481,29.004c0.095-0.1,0.204-0.183,0.321-0.255
		c0.067-0.042,0.14-0.074,0.214-0.106c0.102-0.045,0.207-0.086,0.32-0.113c0.083-0.019,0.17-0.027,0.258-0.036
		c0.13-0.014,0.26-0.027,0.399-0.019c0.037,0.002,0.075,0.005,0.113,0.01c0.205,0.02,0.417,0.057,0.637,0.125
		c0.207,0.064,0.408,0.152,0.606,0.25c0.041,0.02,0.081,0.041,0.121,0.062c0.402,0.216,0.78,0.495,1.116,0.822
		c0.017,0.017,0.035,0.033,0.052,0.051c0.325,0.324,0.607,0.692,0.838,1.082c0.034,0.059,0.068,0.117,0.1,0.177
		c0.021,0.039,0.036,0.08,0.057,0.119c-0.498,0.556-1.337,0.72-2.299,0.425c-1.191-0.37-2.285-1.345-2.896-2.552
		C20.452,29.03,20.467,29.018,20.481,29.004z M25.396,34.662c-0.515,0.38-1.247,0.449-2.062,0.199
		c-1.276-0.396-2.4-1.495-2.973-2.737c0.711,0.628,1.524,1.117,2.381,1.383c0.506,0.156,1.006,0.232,1.485,0.232
		c0.677,0,1.31-0.158,1.865-0.445C26.031,33.884,25.796,34.368,25.396,34.662z"/>
	<path d="M41.456,33.835c-1.086-0.336-2.161-0.191-2.955,0.395c-0.761,0.561-1.197,1.484-1.197,2.533
		c0,2.015,1.564,4.077,3.561,4.695c0.385,0.119,0.768,0.178,1.139,0.178c0.674,0,1.304-0.194,1.816-0.572
		c0.761-0.561,1.197-1.483,1.197-2.532C45.016,36.516,43.452,34.452,41.456,33.835z M42.632,39.454
		c-0.282,0.208-0.701,0.242-1.177,0.094c-1.167-0.361-2.152-1.637-2.152-2.785c0-0.292,0.066-0.689,0.384-0.924
		c0.167-0.122,0.38-0.185,0.625-0.185c0.171,0,0.356,0.03,0.552,0.091c1.167,0.361,2.152,1.637,2.152,2.786
		C43.016,38.823,42.95,39.22,42.632,39.454z"/>
	<path d="M13.456,31.835c-1.085-0.336-2.161-0.191-2.955,0.395c-0.761,0.561-1.197,1.484-1.197,2.533
		c0,2.015,1.564,4.077,3.561,4.695c0.385,0.119,0.768,0.178,1.139,0.178c0.674,0,1.304-0.194,1.816-0.572
		c0.761-0.561,1.197-1.483,1.197-2.532C17.016,34.516,15.452,32.452,13.456,31.835z M14.632,37.454
		c-0.282,0.208-0.701,0.241-1.177,0.094c-1.167-0.361-2.152-1.637-2.152-2.785c0-0.292,0.066-0.689,0.384-0.924
		c0.167-0.122,0.38-0.185,0.625-0.185c0.171,0,0.356,0.03,0.552,0.091c1.167,0.361,2.152,1.637,2.152,2.786
		C15.016,36.823,14.95,37.22,14.632,37.454z"/>
	<path d="M34.456,40.771c-0.81-0.249-1.624-0.14-2.232,0.309c-0.585,0.432-0.92,1.134-0.92,1.928c0,1.455,1.125,2.942,2.561,3.387
		c0.284,0.088,0.568,0.132,0.844,0.132c0.512,0,0.993-0.149,1.388-0.44c0.585-0.432,0.921-1.135,0.921-1.929
		C37.016,42.702,35.891,41.215,34.456,40.771z M34.909,44.475c-0.088,0.065-0.261,0.068-0.453,0.009
		c-0.604-0.187-1.152-0.891-1.152-1.477c0-0.072,0.011-0.247,0.107-0.317c0.045-0.034,0.114-0.051,0.198-0.051
		c0.076,0,0.163,0.014,0.255,0.042c0.604,0.187,1.152,0.89,1.152,1.476C35.016,44.229,35.005,44.403,34.909,44.475z"/>
	<path d="M33.151,34.505c0.284,0.088,0.568,0.132,0.845,0.132c0.511,0,0.993-0.149,1.388-0.44c0.585-0.432,0.92-1.134,0.92-1.928
		c0-1.455-1.125-2.942-2.561-3.387c-0.813-0.251-1.625-0.139-2.231,0.309c-0.585,0.432-0.921,1.135-0.921,1.929
		C30.59,32.573,31.715,34.061,33.151,34.505z M32.698,30.801c0.046-0.034,0.115-0.051,0.198-0.051c0.076,0,0.163,0.014,0.255,0.042
		c0.604,0.187,1.152,0.891,1.152,1.477c0,0.072-0.011,0.247-0.107,0.317c-0.086,0.065-0.261,0.067-0.453,0.009
		c-0.604-0.187-1.152-0.89-1.152-1.476C32.59,31.047,32.601,30.872,32.698,30.801z"/>
	<path d="M11.303,21.767c0-1.557-1.205-3.15-2.744-3.628c-0.863-0.269-1.725-0.148-2.365,0.325
		c-0.617,0.455-0.972,1.198-0.972,2.039c0,1.558,1.206,3.151,2.745,3.627c0.303,0.094,0.605,0.14,0.898,0.14
		c0.541,0,1.051-0.157,1.467-0.464C10.95,23.351,11.303,22.608,11.303,21.767z M9.145,22.195C9.022,22.286,8.8,22.296,8.559,22.22
		c-0.712-0.221-1.337-1.022-1.337-1.717c0-0.117,0.021-0.328,0.158-0.43c0.068-0.05,0.165-0.075,0.279-0.075
		c0.093,0,0.197,0.017,0.308,0.051c0.712,0.221,1.336,1.023,1.336,1.718C9.303,21.884,9.283,22.095,9.145,22.195z"/>
	<path d="M49.332,35.37c0.016-0.069,0.046-0.128,0.07-0.192c0.023-0.062,0.039-0.128,0.068-0.184
		c0.002-0.004,0.006-0.007,0.008-0.011c0.055-0.103,0.123-0.195,0.2-0.278c0.101-0.109,0.222-0.195,0.358-0.262
		c0.027-0.014,0.057-0.024,0.085-0.036c0.13-0.054,0.271-0.091,0.424-0.108c0.021-0.002,0.04-0.008,0.062-0.01
		c0.128-0.011,0.263-0.004,0.401,0.012c0.016,0.002,0.031,0,0.047,0.002h0.001c0.011,0.001,0.025,0.007,0.037,0.009
		c0.124,0.02,0.247,0.05,0.383,0.094c0.08,0.026,0.168,0.064,0.255,0.1c0.053,0.022,0.107,0.04,0.16,0.063
		c0.057,0.026,0.116,0.04,0.176,0.054c0.021,0.005,0.041,0.015,0.062,0.019c0.073,0.013,0.146,0.015,0.219,0.012
		c0.009,0,0.018,0.002,0.027,0.001c0.078-0.005,0.155-0.021,0.23-0.045c0.004-0.001,0.008-0.001,0.013-0.002
		c0.049-0.016,0.094-0.043,0.14-0.067c0.029-0.015,0.06-0.024,0.087-0.042c0.204-0.131,0.346-0.331,0.414-0.556
		c0.027-0.092,0.045-0.186,0.045-0.284v-2.234c0-2.152-1.011-4.222-2.706-5.547L33.223,9.442c-0.367-0.347-0.934-0.367-1.322-0.046
		c-0.313,0.258-0.776,0.311-1.307,0.146c-1.242-0.385-2.291-1.744-2.291-2.968c0-0.253,0.049-0.478,0.145-0.668
		c0.199-0.395,0.115-0.873-0.205-1.177l-2.98-2.818c-0.026-0.024-0.053-0.047-0.081-0.068C22.855,0.069,20-0.486,17.869,0.448
		L3.079,7.583c-1.682,0.727-2.77,2.431-2.774,4.354l-0.001,0.004v0.009v15.746c0,0.297,0.132,0.578,0.36,0.769
		c0.228,0.189,0.526,0.267,0.82,0.215c0.333-0.063,0.688-0.036,1.051,0.077c1.501,0.465,2.769,2.109,2.769,3.592
		c0,0.572-0.197,1.033-0.555,1.297c-0.4,0.295-0.975,0.347-1.623,0.146c-0.397-0.123-0.8-0.347-1.195-0.665
		c-0.301-0.24-0.712-0.29-1.06-0.122c-0.347,0.166-0.567,0.517-0.567,0.901v2.163c0,2.151,1.457,4.018,3.504,4.527l43.684,12.868
		c0.38,0.096,0.764,0.142,1.145,0.142c1.029,0,2.034-0.341,2.869-0.993c1.144-0.893,1.799-2.236,1.799-3.687v-8.34
		c0-0.246-0.089-0.473-0.239-0.648c-0.15-0.176-0.36-0.301-0.603-0.34c-0.021-0.003-0.042-0.012-0.063-0.016
		c-0.886-0.166-1.762-0.791-2.36-1.606l0,0c-0.286-0.391-0.497-0.825-0.626-1.271c-0.036-0.126-0.076-0.251-0.097-0.378
		c-0.029-0.179-0.041-0.353-0.038-0.516c0.002-0.086,0.018-0.163,0.028-0.243C49.315,35.502,49.317,35.432,49.332,35.37z
		 M3.91,9.401l14.794-7.137c1.431-0.625,3.477-0.178,5.224,1.137l2.47,2.336c-0.063,0.268-0.094,0.547-0.094,0.837
		c0,2.093,1.625,4.235,3.7,4.878c0.841,0.261,1.674,0.239,2.384-0.048l15.916,15.057L31.1,21.337
		c-0.439-1.703-1.829-3.257-3.541-3.786c-1.121-0.347-2.233-0.198-3.057,0.407c-0.405,0.298-0.715,0.687-0.924,1.14L3.429,13.101
		c-0.619-0.119-0.979-0.545-1.068-1.268c-0.006-0.045-0.028-0.086-0.041-0.13C2.401,10.682,2.99,9.799,3.91,9.401z M29.258,22.429
		c0,0.317-0.073,0.75-0.423,1.007c-0.308,0.228-0.76,0.265-1.276,0.106c-0.155-0.048-0.308-0.111-0.455-0.188
		c-0.885-0.458-1.601-1.385-1.788-2.314c-0.031-0.153-0.047-0.306-0.047-0.457c0.004-0.022,0.017-0.131,0.019-0.152
		c0.002-0.024-0.007-0.046-0.006-0.069c0.031-0.279,0.132-0.591,0.409-0.795c0.183-0.135,0.417-0.203,0.685-0.203
		c0.184,0,0.384,0.032,0.593,0.097c1.162,0.36,2.142,1.57,2.266,2.727c0.001,0.009-0.001,0.017-0.001,0.026L29.258,22.429z
		 M51.303,48.927c0,0.83-0.375,1.6-1.03,2.11c-0.655,0.513-1.49,0.688-2.258,0.499L4.332,38.668
		c-1.194-0.299-2.028-1.367-2.028-2.599v-0.445c0.077,0.028,0.154,0.055,0.231,0.078c1.25,0.388,2.488,0.224,3.4-0.447
		c0.882-0.65,1.368-1.683,1.368-2.906c0-2.36-1.835-4.777-4.177-5.502c-0.274-0.085-0.55-0.144-0.823-0.174V14.844
		c0.205,0.088,0.423,0.154,0.651,0.197L23.3,21.102c0.006,0.048,0.022,0.095,0.03,0.143c0.017,0.105,0.042,0.209,0.066,0.314
		c0.033,0.144,0.071,0.285,0.118,0.427c0.035,0.107,0.075,0.211,0.118,0.315c0.055,0.135,0.115,0.268,0.182,0.399
		c0.052,0.104,0.107,0.205,0.166,0.305c0.075,0.127,0.155,0.248,0.24,0.369c0.067,0.096,0.134,0.191,0.207,0.284
		c0.093,0.117,0.193,0.226,0.295,0.335c0.079,0.085,0.156,0.171,0.24,0.25c0.112,0.107,0.232,0.203,0.353,0.3
		c0.085,0.069,0.167,0.141,0.256,0.205c0.139,0.099,0.286,0.183,0.434,0.267c0.08,0.046,0.156,0.099,0.239,0.141
		c0.234,0.118,0.475,0.219,0.724,0.296c0.251,0.078,0.501,0.122,0.748,0.15c0.067,0.008,0.132,0.011,0.198,0.016
		c0.077,0.005,0.156,0.018,0.233,0.018c0.137,0,0.27-0.014,0.403-0.029c0.025-0.003,0.051-0.002,0.076-0.006
		c0.229-0.032,0.448-0.092,0.659-0.169c0.049-0.018,0.097-0.038,0.145-0.059c0.209-0.089,0.411-0.192,0.594-0.327
		c0.177-0.131,0.33-0.284,0.47-0.447c0.037-0.042,0.071-0.086,0.106-0.13c0.121-0.157,0.23-0.324,0.318-0.505
		c0.008-0.016,0.018-0.029,0.026-0.045c0.073-0.156,0.135-0.318,0.183-0.489l18.061,5.376c1.227,0.263,2.117,1.363,2.117,2.618
		v0.895c-0.309-0.041-0.608-0.046-0.897-0.021c-0.248,0.022-0.485,0.071-0.712,0.138c-0.079,0.023-0.154,0.056-0.23,0.085
		c-0.158,0.059-0.311,0.127-0.457,0.209c-0.071,0.04-0.14,0.081-0.208,0.126c-0.153,0.102-0.294,0.217-0.429,0.344
		c-0.034,0.032-0.075,0.053-0.108,0.087c-0.011,0.011-0.017,0.026-0.028,0.038c-0.018,0.019-0.039,0.032-0.057,0.052
		c-0.001,0.001-0.001,0.001-0.002,0.002c-0.095,0.105-0.163,0.235-0.245,0.353c-0.066,0.096-0.143,0.184-0.199,0.287
		c-0.01,0.018-0.024,0.031-0.033,0.048c-0.081,0.155-0.129,0.326-0.187,0.493c-0.029,0.085-0.072,0.163-0.095,0.251
		c-0.059,0.22-0.086,0.455-0.106,0.692c-0.006,0.067-0.024,0.129-0.027,0.197c0,0.011-0.004,0.021-0.004,0.032
		c-0.007,0.257,0.018,0.526,0.056,0.797c0.006,0.041,0.001,0.079,0.007,0.12c0.047,0.285,0.122,0.565,0.215,0.841
		c0.007,0.02,0.008,0.04,0.015,0.059c0.033,0.096,0.077,0.195,0.152,0.357c0.051,0.12,0.1,0.24,0.159,0.357
		c0.021,0.045,0.038,0.091,0.062,0.136c0.057,0.107,0.125,0.207,0.19,0.308c0.057,0.093,0.114,0.185,0.175,0.275l-0.001,0.001
		c0.04,0.067,0.082,0.134,0.123,0.188c0.163,0.223,0.344,0.432,0.497,0.592c0.021,0.025,0.065,0.078,0.089,0.102
		c0.069,0.071,0.144,0.131,0.215,0.198c0.033,0.031,0.067,0.062,0.101,0.093c0.167,0.151,0.339,0.29,0.517,0.42
		c0.032,0.023,0.063,0.047,0.095,0.07c0.187,0.131,0.379,0.249,0.575,0.355c0.03,0.016,0.058,0.035,0.088,0.05
		c0.228,0.118,0.46,0.224,0.696,0.307V48.927z"/>
</g>
<g>
</g>
<g>
</g>
<g>
</g>
<g>
</g>
<g>
</g>
<g>
</g>
<g>
</g>
<g>
</g>
<g>
</g>
<g>
</g>
<g>
</g>
<g>
</g>
<g>
</g>
<g>
</g>
<g>
</g>
</svg>
