<?xml version='1.0' encoding='iso-8859-1'?>
<!DOCTYPE svg PUBLIC '-//W3C//DTD SVG 1.1//EN' 'http://www.w3.org/Graphics/SVG/1.1/DTD/svg11.dtd'>
<svg version="1.1" xmlns="http://www.w3.org/2000/svg" viewBox="0 0 460.95 460.95" xmlns:xlink="http://www.w3.org/1999/xlink" enable-background="new 0 0 460.95 460.95">
  <path d="m460.896,272.001c-0.907-29.309-13.144-57.187-34.454-78.499-0.006-0.006-0.012-0.011-0.018-0.017-11.755-11.727-32.15-4.917-47.195,2.864-17.979,9.299-38.367,24.907-57.409,43.949-22.893,22.894-43.313,50.449-50.427,72.706l-223.202-223.202c-11.24-11.24-29.655-11.038-40.637,0.611-10.57,11.212-9.878,28.961 1.018,39.857l19.493,19.492c4.062,4.061 10.744,3.899 14.597-0.485 3.516-4 3.072-10.132-0.695-13.898l-19.678-19.678c-3.375-3.375-3.237-8.954 0.416-12.147 3.331-2.912 8.422-2.531 11.551,0.597l240.767,240.768c21.312,21.311 49.189,33.547 78.499,34.454 1.17,0.036 2.332,0.054 3.495,0.054 28.206-0.001 54.306-10.624 73.807-30.125 20.306-20.304 30.986-47.757 30.072-77.301zm-165.259,34.894c8.378-16.2 22.699-34.829 40.325-52.454 17.626-17.626 36.255-31.947 52.454-40.326 11.099-5.74 17.772-6.976 21.152-6.976 1.654,0 2.521,0.296 2.73,0.505 0.638,0.638 2.079,7.354-6.47,23.883-8.379,16.2-22.7,34.829-40.326,52.455-17.625,17.625-36.254,31.947-52.454,40.325-16.527,8.549-23.247,7.108-23.883,6.471-0.636-0.637-2.077-7.355 6.472-23.883zm121.045,28.266c-16.209,16.209-37.715,24.231-59.729,24.23-15.7-0.001-31.65-4.1-46.121-12.203 21.52-8.114 47.236-27.486 68.813-49.063 19.042-19.042 34.649-39.43 43.948-57.409 1.848-3.573 3.637-7.448 5.14-11.437 7.477,13.292 11.7,28.09 12.172,43.34 0.742,23.969-7.861,46.18-24.223,62.542z"/>
</svg>
